<mxfile host="app.diagrams.net" modified="2021-09-30T20:38:52.739Z" agent="5.0 (Windows NT 10.0; Win64; x64) AppleWebKit/537.36 (KHTML, like Gecko) Chrome/94.0.4606.61 Safari/537.36" etag="kEopuK-4WpfAiwiMpaPH" version="15.3.1" type="github">
  <diagram id="C5RBs43oDa-KdzZeNtuy" name="Page-1">
    <mxGraphModel dx="1038" dy="551" grid="1" gridSize="10" guides="1" tooltips="1" connect="1" arrows="1" fold="1" page="1" pageScale="1" pageWidth="827" pageHeight="1169" math="0" shadow="0">
      <root>
        <mxCell id="WIyWlLk6GJQsqaUBKTNV-0" />
        <mxCell id="WIyWlLk6GJQsqaUBKTNV-1" parent="WIyWlLk6GJQsqaUBKTNV-0" />
        <mxCell id="WIyWlLk6GJQsqaUBKTNV-3" value="CHAT APP" style="rounded=1;whiteSpace=wrap;html=1;fontSize=12;glass=0;strokeWidth=1;shadow=0;" parent="WIyWlLk6GJQsqaUBKTNV-1" vertex="1">
          <mxGeometry x="150" y="60" width="140" height="60" as="geometry" />
        </mxCell>
        <mxCell id="MjiJi1TlJxjlZo6XHRIT-20" style="edgeStyle=orthogonalEdgeStyle;rounded=1;orthogonalLoop=1;jettySize=auto;html=1;startArrow=classic;" edge="1" parent="WIyWlLk6GJQsqaUBKTNV-1" source="MjiJi1TlJxjlZo6XHRIT-0" target="MjiJi1TlJxjlZo6XHRIT-19">
          <mxGeometry relative="1" as="geometry" />
        </mxCell>
        <mxCell id="MjiJi1TlJxjlZo6XHRIT-0" value="AUTH SCREEN" style="rounded=1;whiteSpace=wrap;html=1;" vertex="1" parent="WIyWlLk6GJQsqaUBKTNV-1">
          <mxGeometry x="160" y="180" width="120" height="60" as="geometry" />
        </mxCell>
        <mxCell id="MjiJi1TlJxjlZo6XHRIT-3" value="" style="endArrow=classic;html=1;" edge="1" parent="WIyWlLk6GJQsqaUBKTNV-1" target="MjiJi1TlJxjlZo6XHRIT-0">
          <mxGeometry width="50" height="50" relative="1" as="geometry">
            <mxPoint x="218" y="122" as="sourcePoint" />
            <mxPoint x="440" y="260" as="targetPoint" />
          </mxGeometry>
        </mxCell>
        <mxCell id="MjiJi1TlJxjlZo6XHRIT-4" value="" style="endArrow=classic;html=1;exitX=0.437;exitY=1.037;exitDx=0;exitDy=0;exitPerimeter=0;" edge="1" parent="WIyWlLk6GJQsqaUBKTNV-1" source="MjiJi1TlJxjlZo6XHRIT-0">
          <mxGeometry width="50" height="50" relative="1" as="geometry">
            <mxPoint x="390" y="310" as="sourcePoint" />
            <mxPoint x="212" y="300" as="targetPoint" />
          </mxGeometry>
        </mxCell>
        <mxCell id="MjiJi1TlJxjlZo6XHRIT-9" value="" style="edgeStyle=orthogonalEdgeStyle;rounded=0;orthogonalLoop=1;jettySize=auto;html=1;" edge="1" parent="WIyWlLk6GJQsqaUBKTNV-1" source="MjiJi1TlJxjlZo6XHRIT-5" target="MjiJi1TlJxjlZo6XHRIT-8">
          <mxGeometry relative="1" as="geometry" />
        </mxCell>
        <mxCell id="MjiJi1TlJxjlZo6XHRIT-11" value="" style="edgeStyle=orthogonalEdgeStyle;rounded=0;orthogonalLoop=1;jettySize=auto;html=1;" edge="1" parent="WIyWlLk6GJQsqaUBKTNV-1" source="MjiJi1TlJxjlZo6XHRIT-5" target="MjiJi1TlJxjlZo6XHRIT-10">
          <mxGeometry relative="1" as="geometry" />
        </mxCell>
        <mxCell id="MjiJi1TlJxjlZo6XHRIT-28" style="edgeStyle=orthogonalEdgeStyle;rounded=0;orthogonalLoop=1;jettySize=auto;html=1;" edge="1" parent="WIyWlLk6GJQsqaUBKTNV-1" source="MjiJi1TlJxjlZo6XHRIT-5" target="MjiJi1TlJxjlZo6XHRIT-26">
          <mxGeometry relative="1" as="geometry">
            <Array as="points">
              <mxPoint x="110" y="330" />
              <mxPoint x="110" y="670" />
            </Array>
          </mxGeometry>
        </mxCell>
        <mxCell id="MjiJi1TlJxjlZo6XHRIT-29" style="edgeStyle=orthogonalEdgeStyle;rounded=0;orthogonalLoop=1;jettySize=auto;html=1;" edge="1" parent="WIyWlLk6GJQsqaUBKTNV-1" source="MjiJi1TlJxjlZo6XHRIT-5" target="MjiJi1TlJxjlZo6XHRIT-27">
          <mxGeometry relative="1" as="geometry">
            <Array as="points">
              <mxPoint x="110" y="330" />
              <mxPoint x="110" y="790" />
            </Array>
          </mxGeometry>
        </mxCell>
        <mxCell id="MjiJi1TlJxjlZo6XHRIT-5" value="ALL CHATS" style="rounded=1;whiteSpace=wrap;html=1;" vertex="1" parent="WIyWlLk6GJQsqaUBKTNV-1">
          <mxGeometry x="160" y="300" width="120" height="60" as="geometry" />
        </mxCell>
        <mxCell id="MjiJi1TlJxjlZo6XHRIT-14" value="" style="edgeStyle=orthogonalEdgeStyle;rounded=0;orthogonalLoop=1;jettySize=auto;html=1;" edge="1" parent="WIyWlLk6GJQsqaUBKTNV-1" source="MjiJi1TlJxjlZo6XHRIT-8" target="MjiJi1TlJxjlZo6XHRIT-12">
          <mxGeometry relative="1" as="geometry" />
        </mxCell>
        <mxCell id="MjiJi1TlJxjlZo6XHRIT-8" value="START NEW CHAT" style="whiteSpace=wrap;html=1;rounded=1;" vertex="1" parent="WIyWlLk6GJQsqaUBKTNV-1">
          <mxGeometry x="360" y="300" width="120" height="60" as="geometry" />
        </mxCell>
        <mxCell id="MjiJi1TlJxjlZo6XHRIT-13" value="" style="edgeStyle=orthogonalEdgeStyle;rounded=0;orthogonalLoop=1;jettySize=auto;html=1;" edge="1" parent="WIyWlLk6GJQsqaUBKTNV-1" source="MjiJi1TlJxjlZo6XHRIT-10" target="MjiJi1TlJxjlZo6XHRIT-12">
          <mxGeometry relative="1" as="geometry" />
        </mxCell>
        <mxCell id="MjiJi1TlJxjlZo6XHRIT-10" value="OPEN OLD CHAT" style="whiteSpace=wrap;html=1;rounded=1;" vertex="1" parent="WIyWlLk6GJQsqaUBKTNV-1">
          <mxGeometry x="160" y="440" width="120" height="60" as="geometry" />
        </mxCell>
        <mxCell id="MjiJi1TlJxjlZo6XHRIT-22" style="edgeStyle=orthogonalEdgeStyle;rounded=1;orthogonalLoop=1;jettySize=auto;html=1;exitX=1;exitY=0.5;exitDx=0;exitDy=0;entryX=0.993;entryY=0.649;entryDx=0;entryDy=0;entryPerimeter=0;startArrow=classic;" edge="1" parent="WIyWlLk6GJQsqaUBKTNV-1" source="MjiJi1TlJxjlZo6XHRIT-12" target="MjiJi1TlJxjlZo6XHRIT-19">
          <mxGeometry relative="1" as="geometry" />
        </mxCell>
        <mxCell id="MjiJi1TlJxjlZo6XHRIT-23" value="SOCKET IO" style="edgeLabel;html=1;align=center;verticalAlign=middle;resizable=0;points=[];" vertex="1" connectable="0" parent="MjiJi1TlJxjlZo6XHRIT-22">
          <mxGeometry x="-0.4387" y="5" relative="1" as="geometry">
            <mxPoint as="offset" />
          </mxGeometry>
        </mxCell>
        <mxCell id="MjiJi1TlJxjlZo6XHRIT-12" value="SEND/RECIEVE TEXT MESSAGES&lt;br&gt;CLIENT" style="whiteSpace=wrap;html=1;rounded=1;" vertex="1" parent="WIyWlLk6GJQsqaUBKTNV-1">
          <mxGeometry x="360" y="440" width="120" height="60" as="geometry" />
        </mxCell>
        <mxCell id="MjiJi1TlJxjlZo6XHRIT-18" value="" style="edgeStyle=orthogonalEdgeStyle;rounded=0;orthogonalLoop=1;jettySize=auto;html=1;" edge="1" parent="WIyWlLk6GJQsqaUBKTNV-1" source="MjiJi1TlJxjlZo6XHRIT-15" target="MjiJi1TlJxjlZo6XHRIT-8">
          <mxGeometry relative="1" as="geometry" />
        </mxCell>
        <mxCell id="MjiJi1TlJxjlZo6XHRIT-37" value="" style="edgeStyle=none;rounded=1;orthogonalLoop=1;jettySize=auto;html=1;startArrow=classic;" edge="1" parent="WIyWlLk6GJQsqaUBKTNV-1" source="MjiJi1TlJxjlZo6XHRIT-15" target="MjiJi1TlJxjlZo6XHRIT-19">
          <mxGeometry relative="1" as="geometry" />
        </mxCell>
        <mxCell id="MjiJi1TlJxjlZo6XHRIT-15" value="CONTACT LIST/ GMAIL" style="whiteSpace=wrap;html=1;rounded=1;" vertex="1" parent="WIyWlLk6GJQsqaUBKTNV-1">
          <mxGeometry x="560" y="300" width="120" height="60" as="geometry" />
        </mxCell>
        <mxCell id="MjiJi1TlJxjlZo6XHRIT-25" value="" style="edgeStyle=orthogonalEdgeStyle;rounded=0;orthogonalLoop=1;jettySize=auto;html=1;shape=link;" edge="1" parent="WIyWlLk6GJQsqaUBKTNV-1" source="MjiJi1TlJxjlZo6XHRIT-19" target="MjiJi1TlJxjlZo6XHRIT-24">
          <mxGeometry relative="1" as="geometry" />
        </mxCell>
        <mxCell id="MjiJi1TlJxjlZo6XHRIT-19" value="SERVER" style="rounded=1;whiteSpace=wrap;html=1;" vertex="1" parent="WIyWlLk6GJQsqaUBKTNV-1">
          <mxGeometry x="630" y="40" width="120" height="160" as="geometry" />
        </mxCell>
        <mxCell id="MjiJi1TlJxjlZo6XHRIT-21" value="GOOGLE AUTH" style="text;html=1;align=center;verticalAlign=middle;resizable=0;points=[];autosize=1;strokeColor=none;fillColor=none;" vertex="1" parent="WIyWlLk6GJQsqaUBKTNV-1">
          <mxGeometry x="440" y="90" width="100" height="20" as="geometry" />
        </mxCell>
        <mxCell id="MjiJi1TlJxjlZo6XHRIT-24" value="DATABASE FOR USERS AND CHATS" style="whiteSpace=wrap;html=1;rounded=1;gradientColor=#ffffff;dashed=1;" vertex="1" parent="WIyWlLk6GJQsqaUBKTNV-1">
          <mxGeometry x="830" y="90" width="120" height="60" as="geometry" />
        </mxCell>
        <mxCell id="MjiJi1TlJxjlZo6XHRIT-31" style="edgeStyle=orthogonalEdgeStyle;rounded=0;orthogonalLoop=1;jettySize=auto;html=1;" edge="1" parent="WIyWlLk6GJQsqaUBKTNV-1" source="MjiJi1TlJxjlZo6XHRIT-26" target="MjiJi1TlJxjlZo6XHRIT-30">
          <mxGeometry relative="1" as="geometry" />
        </mxCell>
        <mxCell id="MjiJi1TlJxjlZo6XHRIT-26" value="CREATE A ROOM" style="rounded=1;whiteSpace=wrap;html=1;gradientColor=#ffffff;" vertex="1" parent="WIyWlLk6GJQsqaUBKTNV-1">
          <mxGeometry x="400" y="640" width="120" height="60" as="geometry" />
        </mxCell>
        <mxCell id="MjiJi1TlJxjlZo6XHRIT-32" style="edgeStyle=orthogonalEdgeStyle;rounded=0;orthogonalLoop=1;jettySize=auto;html=1;exitX=1;exitY=0.5;exitDx=0;exitDy=0;" edge="1" parent="WIyWlLk6GJQsqaUBKTNV-1" source="MjiJi1TlJxjlZo6XHRIT-27">
          <mxGeometry relative="1" as="geometry">
            <mxPoint x="650" y="720" as="targetPoint" />
            <Array as="points">
              <mxPoint x="590" y="790" />
              <mxPoint x="590" y="720" />
            </Array>
          </mxGeometry>
        </mxCell>
        <mxCell id="MjiJi1TlJxjlZo6XHRIT-27" value="JOIN A ROOM" style="rounded=1;whiteSpace=wrap;html=1;gradientColor=#ffffff;" vertex="1" parent="WIyWlLk6GJQsqaUBKTNV-1">
          <mxGeometry x="400" y="760" width="120" height="60" as="geometry" />
        </mxCell>
        <mxCell id="MjiJi1TlJxjlZo6XHRIT-34" style="rounded=1;orthogonalLoop=1;jettySize=auto;html=1;startArrow=classic;" edge="1" parent="WIyWlLk6GJQsqaUBKTNV-1" source="MjiJi1TlJxjlZo6XHRIT-30" target="MjiJi1TlJxjlZo6XHRIT-33">
          <mxGeometry relative="1" as="geometry" />
        </mxCell>
        <mxCell id="MjiJi1TlJxjlZo6XHRIT-30" value="CHAT ROOM WITH OTHER CLIENTS" style="rounded=1;whiteSpace=wrap;html=1;gradientColor=#ffffff;" vertex="1" parent="WIyWlLk6GJQsqaUBKTNV-1">
          <mxGeometry x="650" y="690" width="120" height="60" as="geometry" />
        </mxCell>
        <mxCell id="MjiJi1TlJxjlZo6XHRIT-33" value="WEB RTC BASED SERVER" style="rounded=1;whiteSpace=wrap;html=1;gradientColor=#ffffff;" vertex="1" parent="WIyWlLk6GJQsqaUBKTNV-1">
          <mxGeometry x="860" y="530" width="120" height="180" as="geometry" />
        </mxCell>
      </root>
    </mxGraphModel>
  </diagram>
</mxfile>
